<svg width="43" height="43" viewBox="0 0 43 43" fill="none" xmlns="http://www.w3.org/2000/svg">
<g filter="url(#filter0_d_265_660)">
<circle cx="21.5" cy="17.5" r="11.5" fill="#FF0000"/>
</g>
<path d="M25.982 14.8585L25.5532 22.9185C25.5393 23.2114 25.2903 23.4484 24.9998 23.4484H18.0002C17.7097 23.4484 17.4607 23.2114 17.4469 22.9185L17.0181 14.8585C17.0042 14.5517 17.2394 14.2868 17.5437 14.2728C17.8481 14.2589 18.1109 14.496 18.1247 14.8027L18.5259 22.3329H24.488L24.8892 14.8027C24.903 14.496 25.1658 14.2589 25.4702 14.2728C25.7607 14.2868 25.9958 14.5517 25.982 14.8585ZM27.4483 12.9899C27.4483 13.2967 27.1993 13.5477 26.895 13.5477H16.1051C15.8008 13.5477 15.5518 13.2967 15.5518 12.9899C15.5518 12.6832 15.8008 12.4322 16.1051 12.4322H19.1484V11.1771C19.1484 10.9122 19.3282 10.7588 19.5911 10.7588H23.409C23.6718 10.7588 23.8517 10.9122 23.8517 11.1771V12.4322H26.895C27.1993 12.4322 27.4483 12.6832 27.4483 12.9899ZM20.1167 12.4322H22.8834V11.7349H20.1167V12.4322ZM20.3519 21.4962C20.6285 21.4962 20.836 21.2312 20.836 20.9663L20.6977 14.9422C20.6977 14.6772 20.4764 14.4541 20.1997 14.4541C19.9369 14.4541 19.7156 14.6772 19.7294 14.9561L19.8677 20.9942C19.8677 21.2591 20.089 21.4962 20.3519 21.4962ZM22.6344 21.4962C22.8972 21.4962 23.1185 21.2731 23.1185 21.0081L23.2569 14.984C23.2569 14.7191 23.0494 14.482 22.7865 14.482C22.5099 14.482 22.3024 14.6912 22.2885 14.9561L22.1502 20.9802C22.1364 21.2591 22.3577 21.4962 22.6344 21.4962C22.6205 21.4962 22.6205 21.4962 22.6344 21.4962Z" fill="#EFEFEF"/>
<defs>
<filter id="filter0_d_265_660" x="0" y="0" width="43" height="43" filterUnits="userSpaceOnUse" color-interpolation-filters="sRGB">
<feFlood flood-opacity="0" result="BackgroundImageFix"/>
<feColorMatrix in="SourceAlpha" type="matrix" values="0 0 0 0 0 0 0 0 0 0 0 0 0 0 0 0 0 0 127 0" result="hardAlpha"/>
<feOffset dy="4"/>
<feGaussianBlur stdDeviation="5"/>
<feComposite in2="hardAlpha" operator="out"/>
<feColorMatrix type="matrix" values="0 0 0 0 0 0 0 0 0 0 0 0 0 0 0 0 0 0 0.2 0"/>
<feBlend mode="normal" in2="BackgroundImageFix" result="effect1_dropShadow_265_660"/>
<feBlend mode="normal" in="SourceGraphic" in2="effect1_dropShadow_265_660" result="shape"/>
</filter>
</defs>
</svg>
